<svg width="24" height="24" viewBox="0 0 24 24" fill="none" xmlns="http://www.w3.org/2000/svg">
<g clip-path="url(#clip0)">
<path d="M21.2188 11.2187H4.67353L7.41431 8.49125C7.72013 8.18687 7.7213 7.69222 7.41693 7.3864C7.11255 7.08054 6.61787 7.07941 6.31205 7.38375L2.22986 11.4462C2.22959 11.4465 2.22939 11.4468 2.22916 11.447C1.92412 11.7514 1.92314 12.2476 2.22908 12.553C2.22935 12.5532 2.22955 12.5535 2.22978 12.5537L6.31197 16.6162C6.61775 16.9205 7.11244 16.9195 7.41685 16.6136C7.72123 16.3078 7.72005 15.8131 7.41423 15.5087L4.67353 12.7812H21.2188C21.6502 12.7812 22 12.4315 22 12C22 11.5685 21.6502 11.2187 21.2188 11.2187Z" fill="black"/>
</g>
<defs>
<clipPath id="clip0">
<rect width="20" height="20" fill="white" transform="translate(2 2)"/>
</clipPath>
</defs>
</svg>
