<svg width="24" height="24" viewBox="0 0 24 24" fill="none" xmlns="http://www.w3.org/2000/svg">
<g clip-path="url(#clip0)">
<path d="M13.1049 12.001L21.7712 3.33469C22.0763 3.02958 22.0763 2.53489 21.7712 2.22981C21.4661 1.92474 20.9714 1.9247 20.6663 2.22981L12 10.8961L3.33372 2.22981C3.0286 1.9247 2.53391 1.9247 2.22884 2.22981C1.92376 2.53493 1.92372 3.02962 2.22884 3.33469L10.8951 12.001L2.22884 20.6673C1.92372 20.9724 1.92372 21.4671 2.22884 21.7722C2.38138 21.9247 2.58134 22.0009 2.7813 22.0009C2.98126 22.0009 3.18118 21.9247 3.33376 21.7722L12 13.1059L20.6663 21.7722C20.8188 21.9247 21.0188 22.0009 21.2187 22.0009C21.4187 22.0009 21.6186 21.9247 21.7712 21.7722C22.0763 21.467 22.0763 20.9723 21.7712 20.6673L13.1049 12.001Z" fill="black"/>
</g>
<defs>
<clipPath id="clip0">
<rect width="20" height="20" fill="white" transform="translate(2 2)"/>
</clipPath>
</defs>
</svg>
