<svg width="24" height="24" viewBox="0 0 24 24" fill="none" xmlns="http://www.w3.org/2000/svg">
<g clip-path="url(#clip0)">
<path d="M14.4863 20.494C17.7191 20.1757 20.2985 17.5962 20.6169 14.3628H14.4863V20.494Z" fill="black"/>
<path d="M10.8885 2.12305C5.98016 2.12305 2 6.10248 2 11.0115C2 15.9206 5.9802 19.9009 10.8885 19.9009V11.0116H19.7783C19.7784 6.10248 15.7981 2.12305 10.8885 2.12305Z" fill="black"/>
<path d="M13.1367 13.0132V21.8773H13.8117C18.3265 21.8773 22.0003 18.2037 22.0003 13.6881V13.0132H13.1367ZM14.4867 20.4943V14.3632H20.6173C20.2988 17.5965 17.7195 20.176 14.4867 20.4943Z" fill="black"/>
</g>
<defs>
<clipPath id="clip0">
<rect width="20" height="20" fill="white" transform="translate(2 2)"/>
</clipPath>
</defs>
</svg>
