<svg width="24" height="24" viewBox="0 0 24 24" fill="none" xmlns="http://www.w3.org/2000/svg">
<rect width="24" height="24" rx="2" fill="#F2F2F2"/>
<path d="M18.4328 10.8538C18.3487 10.9576 18.2603 11.0587 18.1672 11.1565C17.2245 12.1465 15.9546 12.7009 14.5914 12.7177C14.5703 12.7179 14.5491 12.718 14.5281 12.718C13.5138 12.718 12.5468 12.4193 11.7243 11.8619C11.3487 12.0025 10.9091 11.9221 10.6069 11.62C10.1946 11.2077 10.1946 10.5392 10.6069 10.1269C11.0192 9.71454 11.6877 9.71454 12.1001 10.1269C12.3486 10.3754 12.4471 10.7171 12.396 11.0396C13.0413 11.454 13.793 11.6713 14.5785 11.6619C15.6548 11.6487 16.6577 11.2107 17.4025 10.4285C17.5023 10.3237 17.5948 10.2145 17.6805 10.1015L14.089 6.51001L15.73 4.86013C16.1624 4.42775 16.8659 4.42775 17.2984 4.86013C18.7218 6.28354 18.8587 8.55045 17.6805 10.1016L18.4328 10.8538C19.1709 9.94257 19.5606 8.80663 19.5366 7.61332C19.5099 6.29173 18.9802 5.04878 18.0449 4.11352C17.2009 3.26945 15.8275 3.26945 14.9834 4.11352L13.3344 5.75535L12.4145 4.83545L8.59751 8.65244C8.10866 8.45022 7.57928 8.3444 7.04722 8.3444C4.81557 8.34436 3 10.16 3 12.3916V15.559H4.05578V12.3916C4.05578 11.8094 4.5294 11.3358 5.11155 11.3358C5.333 11.3358 5.54482 11.4051 5.7206 11.5293L5.3155 11.9344L13.901 20.5199L21 13.421L18.4328 10.8538ZM6.47284 10.7771C6.09656 10.4597 5.61647 10.28 5.11159 10.28C5.04761 10.28 4.98439 10.2833 4.92185 10.2889C5.46438 9.74059 6.21669 9.40018 7.04719 9.40018C7.29251 9.40018 7.53199 9.4289 7.76402 9.48589L6.47284 10.7771Z" fill="black"/>
</svg>
