<svg width="24" height="24" viewBox="0 0 24 24" fill="none" xmlns="http://www.w3.org/2000/svg">
<path d="M12 22C13.2062 22 14.1875 21.0187 14.1875 19.8125V19.1759C14.6509 19.035 15.0989 18.8493 15.527 18.6207L15.9776 19.0712C16.3906 19.4843 16.9399 19.7117 17.5242 19.7117C18.1088 19.7117 18.6582 19.4843 19.0712 19.0712C19.9239 18.218 19.9239 16.8302 19.0712 15.9776L18.6207 15.5271C18.8493 15.0989 19.0349 14.6509 19.1758 14.1875H19.8125C20.3966 14.1875 20.9459 13.9599 21.3591 13.5466C21.7724 13.1334 22 12.5841 22 12C22 10.7938 21.0187 9.8125 19.8125 9.8125H19.1758C19.035 9.3491 18.8493 8.90113 18.6207 8.47297L19.0712 8.02242C19.4843 7.60938 19.7117 7.06012 19.7117 6.47578C19.7117 5.89121 19.4843 5.3418 19.0712 4.92875C18.218 4.07598 16.8302 4.07609 15.9776 4.92875L15.527 5.3793C15.0989 5.15066 14.6509 4.96504 14.1875 4.82414V4.1875C14.1875 3.60344 13.9599 3.05418 13.5467 2.6409C13.1334 2.22762 12.5841 2 12 2C11.8546 2 11.7081 2.01465 11.5645 2.04348C10.5487 2.24984 9.8125 3.15145 9.8125 4.1875V4.82414C9.3491 4.965 8.90113 5.15066 8.47297 5.3793L8.02242 4.92875C7.60938 4.51574 7.06012 4.28828 6.47578 4.28828C5.89117 4.28828 5.34176 4.51574 4.92875 4.92875C4.07606 5.78199 4.07613 7.16977 4.92879 8.02238L5.37934 8.47293C5.1507 8.90109 4.96508 9.3491 4.82418 9.81246H4.1875C3.6034 9.81246 3.05414 10.0401 2.64086 10.4534C2.22758 10.8666 2 11.4159 2 12C2 13.2062 2.98129 14.1875 4.1875 14.1875H4.82418C4.96504 14.6509 5.1507 15.0989 5.37934 15.527L4.92879 15.9776C4.51578 16.3906 4.28832 16.9399 4.28832 17.5242C4.28832 18.1088 4.51578 18.6582 4.92879 19.0712C5.35539 19.4976 5.91574 19.7107 6.47582 19.7108C7.03609 19.7108 7.59609 19.4977 8.02246 19.0713L8.47301 18.6207C8.90117 18.8494 9.34914 19.035 9.81254 19.1759V19.8125C9.81254 20.3966 10.0401 20.9458 10.4534 21.3591C10.7586 21.6643 11.1423 21.8708 11.5631 21.9562C11.5636 21.9563 11.564 21.9564 11.5645 21.9565C11.7081 21.9854 11.8546 22 12 22ZM11.6875 21.3438H11.6871H11.6875ZM15.6299 17.2148C15.5161 17.2148 15.4016 17.2458 15.2997 17.3093C14.718 17.6716 14.086 17.9335 13.4213 18.0877C13.138 18.1534 12.9375 18.4058 12.9375 18.6965V19.8125C12.9375 20.3294 12.5169 20.75 12 20.75C11.9375 20.75 11.8741 20.7437 11.8117 20.7312C11.6323 20.6947 11.4682 20.6062 11.3372 20.4752C11.1601 20.298 11.0625 20.0627 11.0625 19.8125V18.6965C11.0625 18.4057 10.862 18.1534 10.5787 18.0877C9.91402 17.9334 9.28203 17.6716 8.70031 17.3093C8.45367 17.1557 8.13348 17.1923 7.92801 17.3979L7.13855 18.1873C6.77312 18.5527 6.17828 18.5527 5.81254 18.1872C5.63574 18.0104 5.53828 17.7749 5.53828 17.5242C5.53828 17.2738 5.6357 17.0384 5.81266 16.8614L6.60207 16.072C6.80762 15.8665 6.8443 15.5464 6.6907 15.2997C6.32844 14.718 6.06652 14.086 5.91234 13.4213C5.84664 13.138 5.59426 12.9375 5.30352 12.9375H4.1875C3.67059 12.9375 3.25 12.517 3.25 12C3.25 11.7498 3.34758 11.5145 3.52477 11.3373C3.70191 11.1601 3.93731 11.0625 4.1875 11.0625H5.30352C5.59426 11.0625 5.84664 10.862 5.91234 10.5787C6.06652 9.91406 6.3284 9.28207 6.6907 8.70031C6.84434 8.45359 6.80762 8.13352 6.60207 7.92801L5.81262 7.13859C5.44719 6.77316 5.44723 6.17832 5.81277 5.81258C5.98953 5.63578 6.22508 5.53836 6.47578 5.53836C6.72621 5.53836 6.96164 5.63582 7.13855 5.81273L7.92801 6.60215C8.13355 6.80773 8.45363 6.84438 8.70031 6.69074C9.28203 6.32848 9.91402 6.0666 10.5787 5.91238C10.862 5.84664 11.0625 5.59426 11.0625 5.30352V4.1875C11.0625 3.74336 11.3777 3.35695 11.812 3.26871C11.8734 3.25641 11.9371 3.25 12 3.25C12.2502 3.25 12.4856 3.34758 12.6628 3.52477C12.8399 3.70195 12.9375 3.9373 12.9375 4.1875V5.30352C12.9375 5.59426 13.138 5.84664 13.4213 5.91234C14.086 6.06656 14.718 6.32844 15.2997 6.6907C15.5463 6.84438 15.8665 6.80766 16.072 6.60211L16.8614 5.81266C17.2269 5.44723 17.8217 5.4473 18.1875 5.81281C18.3643 5.98961 18.4617 6.22512 18.4617 6.47582C18.4617 6.72625 18.3643 6.96164 18.1873 7.13855L17.3979 7.92797C17.1924 8.13352 17.1557 8.45359 17.3093 8.70027C17.6716 9.28203 17.9335 9.91402 18.0877 10.5787C18.1533 10.862 18.4057 11.0625 18.6965 11.0625H19.8125C20.3294 11.0625 20.75 11.4831 20.75 12C20.75 12.2502 20.6524 12.4855 20.4752 12.6627C20.2981 12.8399 20.0627 12.9375 19.8125 12.9375H18.6965C18.4057 12.9375 18.1534 13.138 18.0877 13.4213C17.9335 14.0859 17.6716 14.7179 17.3093 15.2997C17.1557 15.5464 17.1924 15.8665 17.3979 16.072L18.1874 16.8614C18.5528 17.2268 18.5528 17.8217 18.1872 18.1874C18.0105 18.3642 17.7749 18.4616 17.5242 18.4616C17.2738 18.4616 17.0384 18.3642 16.8614 18.1873L16.072 17.3979C15.9514 17.2773 15.7914 17.2148 15.6299 17.2148Z" fill="black"/>
<path d="M12 16.375C14.4124 16.375 16.375 14.4124 16.375 12C16.375 9.58762 14.4124 7.625 12 7.625C11.8757 7.625 11.7524 7.63027 11.6332 7.64062C10.5454 7.73004 9.53395 8.22324 8.78813 9.02922C8.03809 9.83977 7.625 10.8948 7.625 12C7.625 13.1052 8.03809 14.1602 8.78813 14.9708C9.53395 15.7768 10.5454 16.27 11.6363 16.3596C11.7524 16.3697 11.8757 16.375 12 16.375ZM12 8.875C13.7231 8.875 15.125 10.2769 15.125 12C15.125 13.7231 13.7231 15.125 12 15.125C11.9118 15.125 11.8249 15.1213 11.7418 15.1141C10.1329 14.9818 8.875 13.6141 8.875 12C8.875 10.3859 10.1329 9.01816 11.7387 8.88617C11.8249 8.87867 11.9118 8.875 12 8.875Z" fill="black"/>
</svg>
