<svg width="24" height="24" viewBox="0 0 24 24" fill="none" xmlns="http://www.w3.org/2000/svg">
<path d="M19.7778 4H15.1333C14.6667 2.84 13.4444 2 12 2C10.5556 2 9.33333 2.84 8.86667 4H4.22222C3 4 2 4.9 2 6V20C2 21.1 3 22 4.22222 22H19.7778C21 22 22 21.1 22 20V6C22 4.9 21 4 19.7778 4ZM12 4C12.6111 4 13.1111 4.45 13.1111 5C13.1111 5.55 12.6111 6 12 6C11.3889 6 10.8889 5.55 10.8889 5C10.8889 4.45 11.3889 4 12 4ZM14.2222 18H6.44444V16H14.2222V18ZM17.5556 14H6.44444V12H17.5556V14ZM17.5556 10H6.44444V8H17.5556V10Z" fill="#333333"/>
</svg>
