<svg width="24" height="24" viewBox="0 0 24 24" fill="none" xmlns="http://www.w3.org/2000/svg">
<path d="M12 2C6.48566 2 2 6.48566 2 12C2 17.5143 6.48566 22 12 22C17.5143 22 22 17.5136 22 12C22 6.48645 17.5143 2 12 2ZM12 20.4508C7.34082 20.4508 3.54918 16.66 3.54918 12C3.54918 7.34004 7.34082 3.54918 12 3.54918C16.6592 3.54918 20.4508 7.34004 20.4508 12C20.4508 16.66 16.66 20.4508 12 20.4508Z" fill="black"/>
<path d="M15.8731 11.1557H12.7747V8.05732C12.7747 7.62975 12.4285 7.28271 12.0001 7.28271C11.5718 7.28271 11.2255 7.62975 11.2255 8.05732V11.1557H8.12715C7.69879 11.1557 7.35254 11.5027 7.35254 11.9303C7.35254 12.3579 7.69879 12.7049 8.12715 12.7049H11.2255V15.8033C11.2255 16.2308 11.5718 16.5779 12.0001 16.5779C12.4285 16.5779 12.7747 16.2308 12.7747 15.8033V12.7049H15.8731C16.3014 12.7049 16.6477 12.3579 16.6477 11.9303C16.6477 11.5027 16.3014 11.1557 15.8731 11.1557Z" fill="black"/>
</svg>
