<svg width="24" height="24" viewBox="0 0 24 24" fill="none" xmlns="http://www.w3.org/2000/svg">
<g clip-path="url(#clip0)">
<path d="M20.1201 6.47037L19.6785 5.14667C19.5104 4.64252 19.0403 4.30377 18.509 4.30377H14.7976V3.09543C14.7976 2.49149 14.3065 2 13.7027 2H10.304C9.70037 2 9.20919 2.49149 9.20919 3.09543V4.30377H5.49795C4.96648 4.30377 4.49636 4.64252 4.32821 5.14667L3.88662 6.47037C3.78606 6.77173 3.83703 7.10544 4.02273 7.36316C4.20843 7.62088 4.50887 7.77484 4.82656 7.77484H5.28814L6.30407 20.3376C6.3796 21.2697 7.17061 22 8.10522 22H16.1077C17.0421 22 17.8333 21.2697 17.9087 20.3374L18.9246 7.77484H19.1802C19.4979 7.77484 19.7983 7.62088 19.984 7.36331C20.1697 7.10559 20.2207 6.77173 20.1201 6.47037ZM10.3811 3.17188H13.6257V4.30377H10.3811V3.17188ZM16.7406 20.243C16.7141 20.5712 16.4361 20.8281 16.1077 20.8281H8.10522C7.77685 20.8281 7.49883 20.5712 7.47228 20.243L6.46383 7.77484H17.7489L16.7406 20.243ZM5.07787 6.60297L5.43996 5.51746C5.4482 5.49243 5.47155 5.47565 5.49795 5.47565H18.509C18.5354 5.47565 18.5586 5.49243 18.5669 5.51746L18.929 6.60297H5.07787Z" fill="black"/>
<path d="M14.8719 20.2014C14.8822 20.202 14.8925 20.2022 14.9028 20.2022C15.2124 20.2022 15.4712 19.9596 15.4874 19.6467L16.0376 9.08431C16.0544 8.76113 15.806 8.4854 15.483 8.46862C15.159 8.45138 14.8842 8.70009 14.8673 9.02328L14.3172 19.5857C14.3004 19.9089 14.5487 20.1846 14.8719 20.2014Z" fill="black"/>
<path d="M8.5458 19.648C8.56289 19.9604 8.82137 20.2021 9.13036 20.2021C9.14104 20.2021 9.15203 20.2018 9.16286 20.2011C9.48589 20.1836 9.73354 19.9074 9.716 19.5842L9.13967 9.0218C9.12212 8.69862 8.84594 8.45097 8.52276 8.46867C8.19973 8.48621 7.95208 8.7624 7.96963 9.08558L8.5458 19.648Z" fill="black"/>
<path d="M12.0098 20.2021C12.3334 20.2021 12.5957 19.9398 12.5957 19.6161V9.05371C12.5957 8.73007 12.3334 8.46777 12.0098 8.46777C11.6861 8.46777 11.4238 8.73007 11.4238 9.05371V19.6161C11.4238 19.9398 11.6861 20.2021 12.0098 20.2021Z" fill="black"/>
</g>
<defs>
<clipPath id="clip0">
<rect width="20" height="20" fill="white" transform="translate(2 2)"/>
</clipPath>
</defs>
</svg>
