<svg width="24" height="24" viewBox="0 0 24 24" fill="none" xmlns="http://www.w3.org/2000/svg">
<path d="M17.0282 2L4.38652 14.6417L2 22L9.35836 19.6135L22 6.97184L17.0282 2ZM20.3427 6.97184L18.6854 8.62914L15.3709 5.31457L17.0281 3.65727L20.3427 6.97184ZM5.16262 16.0473L7.95273 18.8374L6.70133 19.2433L4.75672 17.2987L5.16262 16.0473ZM5.72906 14.9564L14.5422 6.14324L15.7852 7.38621L6.97199 16.1994L5.72906 14.9564ZM7.80062 17.028L16.6138 8.21477L17.8568 9.45773L9.04359 18.271L7.80062 17.028ZM4.3509 18.5501L5.44996 19.6491L3.82332 20.1767L4.3509 18.5501Z" fill="black"/>
</svg>
