<svg version="1.2" xmlns="http://www.w3.org/2000/svg" xmlns:xlink="http://www.w3.org/1999/xlink" overflow="visible" preserveAspectRatio="none" viewBox="0 0 24 24" width="24" height="24"><g><path xmlns:default="http://www.w3.org/2000/svg" id="object-group" d="M22.66,2.67h-4V4H5.34V2.67h-4v4h1.33v10.66H1.34v4h4V20h13.32v1.33h4v-4h-1.33V6.67h1.33V2.67z M20,4  h1.33v1.34H20V4L20,4z M4,4v1.34H2.67V4H4z M2.67,20v-1.34H4V20H2.67z M18.67,18.67H5.34v-1.34H4V6.67h1.34V5.34h13.32v1.33H20  v10.66h-1.34v1.33l0,0L18.67,18.67z M20,20v-1.34h1.33V20H20z M14.67,6.67H5.34v8h4v2.67h9.33v-8h-4V6.67z M6.67,13.33V8h6.66v5.33  H6.67z M17.33,16h-6.66v-1.33h4v-4h2.67V16l0,0H17.33z" style="fill: rgb(124, 124, 124);" vector-effect="non-scaling-stroke"/></g></svg>