<svg version="1.2" xmlns="http://www.w3.org/2000/svg" xmlns:xlink="http://www.w3.org/1999/xlink" overflow="visible" preserveAspectRatio="none" viewBox="0 0 24 24" width="24" height="24"><g><path xmlns:default="http://www.w3.org/2000/svg" id="calculator" d="M6.96,19.61c-0.52,0.52-1.36,0.52-1.88,0c-0.52-0.51-0.53-1.36-0.02-1.88c0.25-0.26,0.59-0.4,0.95-0.4  c0.73-0.01,1.34,0.58,1.35,1.31C7.36,19,7.22,19.36,6.96,19.61z M10.96,19.61c-0.52,0.52-1.36,0.52-1.88,0  c-0.52-0.52-0.52-1.36,0-1.88c0.52-0.52,1.36-0.52,1.88,0c0.25,0.25,0.39,0.59,0.39,0.94c0,0.36-0.14,0.7-0.4,0.94H10.96z   M7.35,14.67c0,0.73-0.6,1.33-1.33,1.33c0,0-0.01,0-0.01,0c-0.73,0-1.33-0.59-1.33-1.33c0-0.73,0.59-1.33,1.33-1.33  c0.35,0,0.69,0.14,0.94,0.39c0.25,0.25,0.4,0.59,0.39,0.94l0,0L7.35,14.67z M14.96,19.61c-0.52,0.52-1.36,0.52-1.88,0  c-0.52-0.52-0.52-1.36,0-1.88c0.52-0.52,1.36-0.52,1.88,0c0.25,0.25,0.39,0.59,0.39,0.94c0,0.36-0.14,0.7-0.4,0.94H14.96z   M11.35,14.67c0,0.73-0.59,1.33-1.33,1.33c-0.73,0-1.33-0.59-1.33-1.33c0-0.73,0.59-1.33,1.33-1.33c0.35,0,0.69,0.14,0.94,0.39  C11.21,13.98,11.35,14.32,11.35,14.67L11.35,14.67z M6.96,11.61c-0.52,0.52-1.36,0.52-1.88,0c-0.52-0.51-0.53-1.36-0.02-1.88  c0.25-0.26,0.59-0.4,0.95-0.4c0.73-0.01,1.34,0.58,1.35,1.31C7.36,11,7.22,11.36,6.96,11.61z M15.35,14.67  c0,0.73-0.59,1.33-1.33,1.33c-0.73,0-1.33-0.59-1.33-1.33c0-0.73,0.59-1.33,1.33-1.33c0.35,0,0.69,0.14,0.94,0.39  C15.21,13.98,15.35,14.32,15.35,14.67L15.35,14.67z M10.96,11.61c-0.52,0.52-1.36,0.52-1.88,0c-0.52-0.52-0.52-1.36,0-1.88  c0.52-0.52,1.36-0.52,1.88,0c0.25,0.25,0.39,0.59,0.39,0.94c0,0.36-0.14,0.7-0.4,0.94L10.96,11.61z M19.35,18.66  c0,0.74-0.6,1.33-1.33,1.33c-0.74,0-1.34-0.6-1.34-1.33v-4c0-0.74,0.6-1.34,1.34-1.34c0.74,0,1.33,0.6,1.33,1.34V18.66L19.35,18.66z   M14.96,11.61c-0.52,0.52-1.36,0.52-1.88,0c-0.52-0.52-0.52-1.36,0-1.88c0.52-0.52,1.36-0.52,1.88,0c0.25,0.25,0.39,0.59,0.39,0.94  c0,0.36-0.14,0.7-0.4,0.94H14.96z M19.14,7.8C19.01,7.93,18.84,8,18.67,8H5.35C4.98,7.99,4.68,7.7,4.68,7.33V4.67  C4.68,4.3,4.98,4.01,5.35,4h13.32c0.37,0.01,0.66,0.3,0.67,0.67v2.67C19.33,7.51,19.26,7.68,19.14,7.8z M18.94,11.61  c-0.52,0.52-1.36,0.52-1.88,0s-0.52-1.36,0-1.88c0.52-0.52,1.36-0.52,1.88,0c0.25,0.25,0.39,0.59,0.39,0.94  C19.34,11.02,19.2,11.36,18.94,11.61z M20.27,3.07c-0.24-0.26-0.58-0.4-0.94-0.4H4.68c-0.36,0-0.7,0.14-0.94,0.4  c-0.26,0.24-0.4,0.58-0.4,0.94V20c0.01,0.73,0.6,1.32,1.33,1.33h14.67c0.73-0.01,1.32-0.6,1.33-1.33V4  C20.67,3.65,20.53,3.31,20.27,3.07z" style="fill: rgb(124, 124, 124);" vector-effect="non-scaling-stroke"/></g></svg>