<svg width="14" height="14" viewBox="0 0 14 14" fill="none" xmlns="http://www.w3.org/2000/svg">
<path d="M12.04 1.96003H11.4801V0.839995C11.4801 0.530942 11.2292 0.280029 10.92 0.280029H10.36C10.0509 0.280029 9.80006 0.530942 9.80006 0.839995V1.96003H4.2V0.839995C4.2 0.530942 3.94918 0.280029 3.64003 0.280029H3.08006C2.77091 0.280029 2.52 0.530942 2.52 0.839995V1.96003H1.96003C1.03379 1.96003 0.280029 2.71379 0.280029 3.64003V12.04C0.280029 12.9663 1.03379 13.72 1.96003 13.72H12.04C12.9663 13.72 13.72 12.9663 13.72 12.04V3.64003C13.72 2.71379 12.9663 1.96003 12.04 1.96003ZM12.6 12.04C12.6 12.3486 12.3486 12.6 12.04 12.6H1.96003C1.65149 12.6 1.40006 12.3486 1.40006 12.04V5.90245H12.6V12.04Z" fill="#B3B3B3"/>
</svg>
