<svg width="24" height="24" viewBox="0 0 24 24" fill="none" xmlns="http://www.w3.org/2000/svg">
    <path fill-rule="evenodd" clip-rule="evenodd" d="M13.875 5.12504C13.715 5.12504 13.555 5.0642 13.4333 4.9417L12.625 4.13384V8.0417C12.625 8.3867 12.345 8.6667 12 8.6667C11.655 8.6667 11.375 8.3867 11.375 8.0417V4.1342L10.5667 4.94254C10.3225 5.1867 9.92667 5.1867 9.6825 4.94254C9.43833 4.69837 9.43833 4.30254 9.6825 4.05837L11.5575 2.18337C11.8017 1.9392 12.1975 1.9392 12.4417 2.18337L14.3167 4.05837C14.5608 4.30254 14.5608 4.69837 14.3167 4.94254C14.195 5.0642 14.035 5.12504 13.875 5.12504ZM9.29167 11.1667H14.7083C15.5125 11.1667 16.1667 10.5125 16.1667 9.70838V8.45838C16.1667 8.11337 15.8867 7.83337 15.5417 7.83337C15.1967 7.83337 14.9167 8.11337 14.9167 8.45838V9.70838C14.9167 9.82338 14.8233 9.91671 14.7083 9.91671H9.29167C9.17667 9.91671 9.08333 9.82338 9.08333 9.70838V8.45838C9.08333 8.11337 8.80333 7.83337 8.45833 7.83337C8.11334 7.83337 7.83334 8.11337 7.83334 8.45838V9.70838C7.83334 10.5125 8.4875 11.1667 9.29167 11.1667ZM14.2682 19.5001H20.5417C21.3458 19.5001 22 18.8459 22 18.0417V15.9584V6.79171C22 5.98754 21.3458 5.33337 20.5417 5.33337H17.625C17.28 5.33337 17 5.61337 17 5.95837C17 6.30338 17.28 6.58338 17.625 6.58338H20.5417C20.6567 6.58338 20.75 6.67671 20.75 6.79171V15.3334H3.25V6.79171C3.25 6.67671 3.34333 6.58338 3.45833 6.58338H6.375C6.72083 6.58338 7 6.30338 7 5.95837C7 5.61337 6.72083 5.33337 6.375 5.33337H3.45833C2.65417 5.33337 2 5.98754 2 6.79171V15.9584V18.0417C2 18.8459 2.65417 19.5001 3.45833 19.5001H9.71802C9.56495 19.9316 9.29844 20.4849 8.85 20.9334C8.67083 21.1125 8.6175 21.3809 8.71417 21.6142C8.81083 21.8475 9.03917 22 9.29167 22H14.7084C15.0534 22 15.3334 21.72 15.3334 21.375C15.3334 21.1617 15.2267 20.9742 15.0642 20.8609C14.6608 20.4296 14.4141 19.9108 14.2682 19.5001ZM13.4833 18.2501C13.4686 18.2495 13.4538 18.2495 13.4388 18.2501H10.5392C10.5266 18.2497 10.5141 18.2497 10.5017 18.2501H3.45833C3.34333 18.2501 3.25 18.1567 3.25 18.0417V16.5834H20.75V18.0417C20.75 18.1567 20.6567 18.2501 20.5417 18.2501H13.4833ZM11.028 19.5001H12.9577C13.0495 19.8326 13.2054 20.2833 13.4608 20.75H10.525C10.782 20.2825 10.9372 19.8326 11.028 19.5001Z" fill="#424D78"/>
</svg>