<svg width="24" height="24" viewBox="0 0 24 24" fill="none" xmlns="http://www.w3.org/2000/svg">
    <path fill-rule="evenodd" clip-rule="evenodd" d="M13.875 5.125C13.715 5.125 13.555 5.06416 13.4333 4.94166L12.625 4.1338V8.04166C12.625 8.38666 12.345 8.66666 12 8.66666C11.655 8.66666 11.375 8.38666 11.375 8.04166V4.13416L10.5667 4.9425C10.3225 5.18666 9.92667 5.18666 9.6825 4.9425C9.43833 4.69833 9.43833 4.3025 9.6825 4.05833L11.5575 2.18333C11.8017 1.93916 12.1975 1.93916 12.4417 2.18333L14.3167 4.05833C14.5608 4.3025 14.5608 4.69833 14.3167 4.9425C14.195 5.06416 14.035 5.125 13.875 5.125ZM9.29167 11.1667H14.7083C15.5125 11.1667 16.1667 10.5125 16.1667 9.70834V8.45834C16.1667 8.11334 15.8867 7.83334 15.5417 7.83334C15.1967 7.83334 14.9167 8.11334 14.9167 8.45834V9.70834C14.9167 9.82334 14.8233 9.91667 14.7083 9.91667H9.29167C9.17667 9.91667 9.08333 9.82334 9.08333 9.70834V8.45834C9.08333 8.11334 8.80333 7.83334 8.45833 7.83334C8.11334 7.83334 7.83334 8.11334 7.83334 8.45834V9.70834C7.83334 10.5125 8.4875 11.1667 9.29167 11.1667ZM14.2682 19.5H20.5417C21.3458 19.5 22 18.8459 22 18.0417V15.9583V6.79167C22 5.9875 21.3458 5.33334 20.5417 5.33334H17.625C17.28 5.33334 17 5.61334 17 5.95834C17 6.30334 17.28 6.58334 17.625 6.58334H20.5417C20.6567 6.58334 20.75 6.67667 20.75 6.79167V15.3333H3.25V6.79167C3.25 6.67667 3.34333 6.58334 3.45833 6.58334H6.375C6.72083 6.58334 7 6.30334 7 5.95834C7 5.61334 6.72083 5.33334 6.375 5.33334H3.45833C2.65417 5.33334 2 5.9875 2 6.79167V15.9583V18.0417C2 18.8459 2.65417 19.5 3.45833 19.5H9.71802C9.56495 19.9316 9.29844 20.4849 8.85 20.9333C8.67083 21.1125 8.6175 21.3808 8.71417 21.6142C8.81083 21.8475 9.03917 22 9.29167 22H14.7084C15.0534 22 15.3334 21.72 15.3334 21.375C15.3334 21.1617 15.2267 20.9742 15.0642 20.8608C14.6608 20.4295 14.4141 19.9108 14.2682 19.5ZM13.4833 18.25C13.4686 18.2495 13.4538 18.2495 13.4388 18.25H10.5392C10.5266 18.2496 10.5141 18.2496 10.5017 18.25H3.45833C3.34333 18.25 3.25 18.1567 3.25 18.0417V16.5833H20.75V18.0417C20.75 18.1567 20.6567 18.25 20.5417 18.25H13.4833ZM11.028 19.5H12.9577C13.0495 19.8326 13.2054 20.2832 13.4608 20.75H10.525C10.782 20.2825 10.9372 19.8326 11.028 19.5Z" fill="black"/>
</svg>