<svg version="1.2" xmlns="http://www.w3.org/2000/svg" xmlns:xlink="http://www.w3.org/1999/xlink" overflow="visible" preserveAspectRatio="none" viewBox="0 0 1012 1012" height="26" width="26"><g transform="translate(1, 1)"><rect fill="#F3FAFB" height="1010" width="1010" vector-effect="non-scaling-stroke"/><path fill="#85CBD1" d="M855.018 855.018C762.187 947.849 636.282 1000 505 1000C373.718 1000 247.813 947.849 154.982 855.018L305.49 704.51C358.403 757.424 430.169 787.15 505 787.15C579.831 787.15 651.597 757.424 704.51 704.51L855.018 855.018Z" vector-effect="non-scaling-stroke"/><path fill="#004D40" d="M154.982 855.018C62.1516 762.187 9.99997 636.282 9.99998 505C9.99998 373.718 62.1516 247.813 154.982 154.982L305.49 305.49C252.576 358.403 222.85 430.169 222.85 505C222.85 579.831 252.576 651.597 305.49 704.51L154.982 855.018Z" vector-effect="non-scaling-stroke"/><path fill="#AD1457" d="M154.982 154.982C247.813 62.1515 373.718 9.99995 505 9.99996C636.282 9.99997 762.187 62.1516 855.018 154.982L704.51 305.49C651.597 252.576 579.831 222.85 505 222.85C430.169 222.85 358.403 252.576 305.49 305.49L154.982 154.982Z" vector-effect="non-scaling-stroke"/><path fill="#555190" d="M855.018 154.982C947.848 247.813 1000 373.718 1000 505C1000 636.282 947.848 762.187 855.018 855.018L704.51 704.51C757.424 651.597 787.15 579.831 787.15 505C787.15 430.169 757.424 358.403 704.51 305.49L855.018 154.982Z" vector-effect="non-scaling-stroke"/><path fill="#F3FAFB" d="M159.846 121L114 166.846L459.154 512L114 857.154L159.846 903L505 557.846L850.154 903L896 857.154L550.846 512L896 166.846L850.154 121L505 466.154L159.846 121Z" clip-rule="evenodd" fill-rule="evenodd" vector-effect="non-scaling-stroke"/></g></svg>