<svg width="152" height="37" viewBox="0 0 152 37" fill="none" xmlns="http://www.w3.org/2000/svg">
<path d="M57.0847 7.49429V0.269043H60.1299V13.5795H57.8498L52.7171 6.35426V13.5795H49.672V0.269043H51.9521L57.0847 7.49429Z" fill="#263467"/>
<path d="M65.635 8.28977V10.6458H70.9602V13.5744H62.5949V0.269043H70.869V3.19765H65.6401V5.4017H70.3927V8.29484H65.635V8.28977Z" fill="#263467"/>
<path d="M84.0334 11.8462C82.6907 13.1787 81.0541 13.8425 79.1287 13.8425C77.2034 13.8425 75.5668 13.1787 74.2241 11.8462C72.8814 10.5136 72.2075 8.87195 72.2075 6.92124C72.2075 4.97052 72.8814 3.32888 74.2241 1.99632C75.5668 0.66375 77.2034 0 79.1287 0C81.0541 0 82.6907 0.66375 84.0334 1.99632C85.3761 3.32888 86.0499 4.97052 86.0499 6.92124C86.0499 8.87702 85.3761 10.5187 84.0334 11.8462ZM75.2476 6.92124C75.2476 8.0866 75.6175 9.03916 76.3521 9.77384C77.0868 10.5085 78.014 10.8784 79.1287 10.8784C80.2333 10.8784 81.1504 10.5085 81.8851 9.77384C82.6349 9.02396 83.0048 8.07646 83.0048 6.92124C83.0048 5.76601 82.6299 4.81852 81.8851 4.06863C81.1504 3.33395 80.2282 2.96407 79.1287 2.96407C78.014 2.96407 77.0868 3.33395 76.3521 4.06863C75.6124 4.80332 75.2476 5.75587 75.2476 6.92124Z" fill="#263467"/>
<path d="M96.0305 0.269043V3.19765H90.989V5.76651H95.9342V8.69512H90.989V13.5846H87.9439V0.269043H96.0305Z" fill="#263467"/>
<path d="M101.071 0.269043V10.6509H105.824V13.5795H98.0261V0.269043H101.071Z" fill="#263467"/>
<path d="M110.397 8.28977V10.6458H115.723V13.5744H107.357V0.269043H115.631V3.19765H110.403V5.4017H115.155V8.29484H110.397V8.28977Z" fill="#263467"/>
<path d="M124.099 6.74916L128.072 13.5741H124.611L122.367 9.7335L120.122 13.5741H116.661L120.634 6.74916L116.849 0.263672H120.31L122.362 3.78003L124.414 0.263672H127.874L124.099 6.74916Z" fill="#263467"/>
<path d="M59.9366 36.4457H56.6634L54.1554 32.073H52.7113V36.4457H49.6662V23.1301H54.9914C56.2581 23.1301 57.3373 23.576 58.224 24.4627C59.1107 25.3494 59.5566 26.4286 59.5566 27.6953C59.5566 28.4959 59.3336 29.2407 58.8827 29.9399C58.4317 30.6391 57.8389 31.1762 57.1042 31.5562L59.9366 36.4457ZM54.9914 25.9827H52.7113V29.4079H54.9914C55.4119 29.4079 55.7666 29.2457 56.0656 28.9113C56.3645 28.582 56.5114 28.1767 56.5114 27.6953C56.5114 27.214 56.3645 26.8086 56.0656 26.4793C55.7717 26.1499 55.4119 25.9827 54.9914 25.9827Z" fill="#263467"/>
<path d="M64.5988 31.1559V33.512H69.924V36.4406H61.5587V23.1301H69.8328V26.0587H64.5988V28.2628H69.3515V31.1559H64.5988Z" fill="#263467"/>
<path d="M71.8175 23.1301H76.8589C78.1763 23.1301 79.2809 23.576 80.1675 24.4627C81.0694 25.3646 81.5204 26.4387 81.5204 27.6953C81.5204 28.9519 81.0694 30.026 80.1675 30.9279C79.2809 31.8146 78.1763 32.2605 76.8589 32.2605H74.8626V36.4457H71.8175V23.1301ZM74.8626 29.4079H76.8589C77.3302 29.4079 77.7152 29.2457 78.0192 28.9113C78.3232 28.582 78.4752 28.1767 78.4752 27.6953C78.4752 27.214 78.3232 26.8086 78.0192 26.4793C77.7152 26.1499 77.3302 25.9827 76.8589 25.9827H74.8626V29.4079Z" fill="#263467"/>
<path d="M94.3911 34.7126C93.0484 36.0451 91.4118 36.7089 89.4864 36.7089C87.5611 36.7089 85.9245 36.0451 84.5818 34.7126C83.2391 33.38 82.5652 31.7384 82.5652 29.7877C82.5652 27.837 83.2391 26.1953 84.5818 24.8628C85.9245 23.5302 87.5611 22.8665 89.4864 22.8665C91.4118 22.8665 93.0484 23.5302 94.3911 24.8628C95.7338 26.1953 96.4077 27.837 96.4077 29.7877C96.4077 31.7384 95.7338 33.38 94.3911 34.7126ZM85.6053 29.7877C85.6053 30.953 85.9751 31.9056 86.7098 32.6403C87.4445 33.3749 88.3717 33.7448 89.4864 33.7448C90.591 33.7448 91.5081 33.3749 92.2428 32.6403C92.9927 31.8904 93.3626 30.9429 93.3626 29.7877C93.3626 28.6324 92.9876 27.685 92.2428 26.9351C91.5081 26.2004 90.5859 25.8305 89.4864 25.8305C88.3717 25.8305 87.4445 26.2004 86.7098 26.9351C85.9751 27.6698 85.6053 28.6223 85.6053 29.7877Z" fill="#263467"/>
<path d="M108.58 36.4457H105.307L102.799 32.073H101.355V36.4457H98.3094V23.1301H103.635C104.901 23.1301 105.98 23.576 106.867 24.4627C107.754 25.3494 108.2 26.4286 108.2 27.6953C108.2 28.4959 107.977 29.2407 107.526 29.9399C107.075 30.6391 106.482 31.1762 105.747 31.5562L108.58 36.4457ZM103.635 25.9827H101.355V29.4079H103.635C104.055 29.4079 104.41 29.2457 104.709 28.9113C105.008 28.582 105.155 28.1767 105.155 27.6953C105.155 27.214 105.008 26.8086 104.709 26.4793C104.415 26.1499 104.055 25.9827 103.635 25.9827Z" fill="#263467"/>
<path d="M108.959 23.1301H118.85V26.0587H115.425V36.4406H112.379V26.0587H108.954V23.1301H108.959Z" fill="#263467"/>
<path d="M120.375 36.4457V23.1301H123.421V36.4406H120.375V36.4457Z" fill="#263467"/>
<path d="M133.302 30.3604V23.1301H136.342V36.4406H134.062L128.929 29.2153V36.4406H125.884V23.1301H128.164L133.302 30.3604Z" fill="#263467"/>
<path d="M145.326 29.0277H151.999V30.1677C151.999 32.1437 151.376 33.7347 150.135 34.9406C148.904 36.1211 147.338 36.7089 145.438 36.7089C143.371 36.7089 141.653 36.0451 140.285 34.7126C138.927 33.38 138.248 31.7485 138.248 29.8079C138.248 27.8674 138.922 26.2257 140.265 24.883C141.607 23.5403 143.264 22.8665 145.23 22.8665C146.461 22.8665 147.591 23.1401 148.625 23.6923C149.658 24.2446 150.464 24.9844 151.052 25.9065L148.468 27.3911C148.164 26.9199 147.723 26.5449 147.145 26.2612C146.568 25.9775 145.924 25.8356 145.215 25.8356C144.085 25.8356 143.148 26.2105 142.403 26.9553C141.668 27.69 141.298 28.6476 141.298 29.8282C141.298 30.9682 141.678 31.9157 142.438 32.6605C143.198 33.3851 144.212 33.7448 145.483 33.7448C147.231 33.7448 148.366 33.0608 148.888 31.6928H145.331V29.0277H145.326Z" fill="#263467"/>
<path d="M6.41016 20.6066L0.000671387 9.45459V36.4302H6.41016V20.6066Z" fill="#E63C32"/>
<path d="M20.8606 36.3947L28.2835 36.4301L7.40325 0.258301H0.000671387L20.8606 36.3947Z" fill="#E63C32"/>
<path d="M43.1009 11.6032C43.1009 5.3406 38.0239 0.263672 31.7614 0.263672H20.883H18.1216H13.4804L17.1792 6.67316H18.1216H24.5817H31.7614C34.4873 6.67316 36.6914 8.88228 36.6914 11.6032C36.6914 14.324 34.4823 16.5331 31.7614 16.5331H30.2768H28.2653H22.8742L34.3404 36.395L41.7632 36.4304L33.859 22.745C39.1234 21.757 43.1009 17.1462 43.1009 11.6032Z" fill="#263467"/>
</svg>
