<svg width="111" height="28" viewBox="0 0 111 28" fill="none" xmlns="http://www.w3.org/2000/svg">
    <g clip-path="url(#clip0)">
        <path d="M41.6885 6.01351V0.697754H43.9122V10.4905H42.2472L38.4991 5.17477V10.4905H36.2754V0.697754H37.9404L41.6885 6.01351Z" fill="white"/>
        <path d="M47.9368 6.59876V8.33216H51.8255V10.4868H45.7168V0.697754H51.7589V2.85239H47.9405V4.47395H51.4111V6.60249H47.9368V6.59876Z" fill="white"/>
        <path d="M61.3682 9.21545C60.3877 10.1958 59.1926 10.6842 57.7866 10.6842C56.3806 10.6842 55.1855 10.1958 54.205 9.21545C53.2245 8.23506 52.7324 7.02727 52.7324 5.59209C52.7324 4.15691 53.2245 2.94912 54.205 1.96873C55.1855 0.988334 56.3806 0.5 57.7866 0.5C59.1926 0.5 60.3877 0.988334 61.3682 1.96873C62.3487 2.94912 62.8408 4.15691 62.8408 5.59209C62.8408 7.031 62.3487 8.23878 61.3682 9.21545ZM54.9524 5.59209C54.9524 6.44947 55.2225 7.15028 55.759 7.69081C56.2955 8.23133 56.9726 8.50345 57.7866 8.50345C58.5932 8.50345 59.2629 8.23133 59.7994 7.69081C60.347 7.1391 60.6171 6.44201 60.6171 5.59209C60.6171 4.74217 60.3433 4.04508 59.7994 3.49337C59.2629 2.95285 58.5895 2.68073 57.7866 2.68073C56.9726 2.68073 56.2955 2.95285 55.759 3.49337C55.2188 4.0339 54.9524 4.73471 54.9524 5.59209Z" fill="white"/>
        <path d="M70.1298 0.697754V2.85239H66.4483V4.74235H70.0595V6.89698H66.4483V10.4942H64.2246V0.697754H70.1298Z" fill="white"/>
        <path d="M73.8116 0.697754V8.33589H77.2822V10.4905H71.5879V0.697754H73.8116Z" fill="white"/>
        <path d="M80.6165 6.59876V8.33216H84.5052V10.4868H78.3965V0.697754H84.4386V2.85239H80.6202V4.47395H84.0908V6.60249H80.6165V6.59876Z" fill="white"/>
        <path d="M90.6269 5.46535L93.5277 10.4866H91.0006L89.3615 7.66099L87.7224 10.4866H85.1953L88.0961 5.46535L85.3322 0.693848H87.8593L89.3578 3.2809L90.8563 0.693848H93.3834L90.6269 5.46535Z" fill="white"/>
        <path d="M43.7714 27.3136H41.3812L39.5497 24.0965H38.4952V27.3136H36.2715V17.5171H40.1602C41.0852 17.5171 41.8733 17.8451 42.5208 18.4975C43.1683 19.1498 43.4939 19.9438 43.4939 20.8758C43.4939 21.4648 43.3311 22.0127 43.0018 22.5272C42.6725 23.0416 42.2396 23.4367 41.7031 23.7163L43.7714 27.3136ZM40.1602 19.6158H38.4952V22.1358H40.1602C40.4673 22.1358 40.7263 22.0165 40.9446 21.7704C41.1629 21.5281 41.2702 21.2299 41.2702 20.8758C41.2702 20.5216 41.1629 20.2234 40.9446 19.9811C40.73 19.7388 40.4673 19.6158 40.1602 19.6158Z" fill="white"/>
        <path d="M47.1751 23.4218V25.1552H51.0638V27.3099H44.9551V17.5171H50.9972V19.6717H47.1751V21.2933H50.6457V23.4218H47.1751Z" fill="white"/>
        <path d="M52.4512 17.5171H56.1327C57.0947 17.5171 57.9013 17.8451 58.5488 18.4975C59.2074 19.161 59.5367 19.9513 59.5367 20.8758C59.5367 21.8003 59.2074 22.5905 58.5488 23.2541C57.9013 23.9064 57.0947 24.2345 56.1327 24.2345H54.6749V27.3136H52.4512V17.5171ZM54.6749 22.1358H56.1327C56.4768 22.1358 56.758 22.0165 56.98 21.7704C57.202 21.5281 57.313 21.2299 57.313 20.8758C57.313 20.5216 57.202 20.2234 56.98 19.9811C56.758 19.7388 56.4768 19.6158 56.1327 19.6158H54.6749V22.1358Z" fill="white"/>
        <path d="M68.9346 26.0387C67.9541 27.0191 66.759 27.5074 65.353 27.5074C63.947 27.5074 62.7519 27.0191 61.7714 26.0387C60.7909 25.0583 60.2988 23.8505 60.2988 22.4153C60.2988 20.9802 60.7909 19.7724 61.7714 18.792C62.7519 17.8116 63.947 17.3232 65.353 17.3232C66.759 17.3232 67.9541 17.8116 68.9346 18.792C69.9151 19.7724 70.4072 20.9802 70.4072 22.4153C70.4072 23.8505 69.9151 25.0583 68.9346 26.0387ZM62.5188 22.4153C62.5188 23.2727 62.7889 23.9735 63.3254 24.514C63.8619 25.0546 64.539 25.3267 65.353 25.3267C66.1596 25.3267 66.8293 25.0546 67.3658 24.514C67.9134 23.9623 68.1835 23.2653 68.1835 22.4153C68.1835 21.5654 67.9097 20.8683 67.3658 20.3166C66.8293 19.7761 66.1559 19.504 65.353 19.504C64.539 19.504 63.8619 19.7761 63.3254 20.3166C62.7889 20.8571 62.5188 21.558 62.5188 22.4153Z" fill="white"/>
        <path d="M79.2948 27.3136H76.9046L75.0731 24.0965H74.0186V27.3136H71.7949V17.5171H75.6836C76.6086 17.5171 77.3967 17.8451 78.0442 18.4975C78.6917 19.1498 79.0173 19.9438 79.0173 20.8758C79.0173 21.4648 78.8545 22.0127 78.5252 22.5272C78.1959 23.0416 77.763 23.4367 77.2265 23.7163L79.2948 27.3136ZM75.6836 19.6158H74.0186V22.1358H75.6836C75.9907 22.1358 76.2497 22.0165 76.468 21.7704C76.6863 21.5281 76.7936 21.2299 76.7936 20.8758C76.7936 20.5216 76.6863 20.2234 76.468 19.9811C76.2534 19.7388 75.9907 19.6158 75.6836 19.6158Z" fill="white"/>
        <path d="M79.5721 17.5171H86.7945V19.6717H84.2933V27.3099H82.0696V19.6717H79.5684V17.5171H79.5721Z" fill="white"/>
        <path d="M87.9043 27.3136V17.5171H90.128V27.3099H87.9043V27.3136Z" fill="white"/>
        <path d="M97.3484 22.8366V17.5171H99.5684V27.3099H97.9034L94.1553 21.9941V27.3099H91.9316V17.5171H93.5966L97.3484 22.8366Z" fill="white"/>
        <path d="M106.128 21.8562H111.001V22.6949C111.001 24.1487 110.546 25.3192 109.639 26.2064C108.74 27.075 107.597 27.5074 106.209 27.5074C104.7 27.5074 103.445 27.0191 102.446 26.0387C101.455 25.0583 100.959 23.858 100.959 22.4302C100.959 21.0025 101.451 19.7947 102.432 18.8069C103.412 17.819 104.622 17.3232 106.058 17.3232C106.957 17.3232 107.782 17.5245 108.537 17.9309C109.291 18.3372 109.88 18.8814 110.309 19.5599L108.422 20.6521C108.2 20.3054 107.878 20.0296 107.456 19.8208C107.034 19.6121 106.564 19.5077 106.046 19.5077C105.221 19.5077 104.537 19.7835 103.993 20.3315C103.456 20.872 103.186 21.5766 103.186 22.4452C103.186 23.2839 103.464 23.981 104.019 24.529C104.574 25.062 105.314 25.3267 106.243 25.3267C107.519 25.3267 108.348 24.8235 108.729 23.817H106.132V21.8562H106.128Z" fill="white"/>
        <path d="M4.6805 15.6603L0 7.45557V27.302H4.6805V15.6603Z" fill="white"/>
        <path d="M15.2329 27.2762L20.6534 27.3023L5.4057 0.689941H0L15.2329 27.2762Z" fill="white"/>
        <path d="M31.4681 9.03652C31.4681 4.42904 27.7607 0.693848 23.1875 0.693848H15.2436H13.2271H9.83789L12.5389 5.40944H13.2271H17.9446H23.1875C25.1781 5.40944 26.7876 7.03473 26.7876 9.03652C26.7876 11.0383 25.1744 12.6636 23.1875 12.6636H22.1034H20.6345H16.6977L25.0708 27.2763L30.4913 27.3024L24.7193 17.2338C28.5636 16.5069 31.4681 13.1147 31.4681 9.03652Z" fill="white"/>
    </g>
    <defs>
        <clipPath id="clip0">
            <rect width="111" height="27" fill="white" transform="translate(0 0.5)"/>
        </clipPath>
    </defs>
</svg>