<svg version="1.2" xmlns="http://www.w3.org/2000/svg" xmlns:xlink="http://www.w3.org/1999/xlink" overflow="visible" preserveAspectRatio="none" viewBox="0 0 24 24" width="24" height="24"><g><path xmlns:default="http://www.w3.org/2000/svg" id="sort-amount-desc" d="M15.08,18.76c-0.06-0.06-0.15-0.09-0.24-0.09h-2.67c-0.18-0.01-0.32,0.13-0.33,0.31  c0,0.01,0,0.01,0,0.02v2c-0.01,0.18,0.13,0.32,0.31,0.33c0.01,0,0.01,0,0.02,0h2.67c0.18,0.01,0.32-0.13,0.33-0.31  c0-0.01,0-0.01,0-0.02v-2C15.17,18.91,15.14,18.82,15.08,18.76z M10.18,17.67c0.01-0.18-0.13-0.32-0.31-0.33c-0.01,0-0.01,0-0.02,0  h-2V3c0.01-0.18-0.13-0.32-0.31-0.33c-0.01,0-0.01,0-0.02,0h-2C5.34,2.65,5.19,2.78,5.17,2.96c0,0.01,0,0.03,0,0.04v14.33h-2  c-0.14-0.01-0.27,0.08-0.31,0.21c-0.05,0.12-0.03,0.27,0.07,0.36l3.33,3.33c0.07,0.06,0.15,0.09,0.24,0.09  c0.09,0,0.17-0.03,0.24-0.09l3.32-3.32c0.06-0.07,0.1-0.16,0.1-0.25l0,0L10.18,17.67z M17.08,13.43c-0.06-0.06-0.15-0.09-0.24-0.09  h-4.67c-0.18-0.01-0.32,0.13-0.33,0.31c0,0.01,0,0.01,0,0.02v2C11.83,15.85,11.97,16,12.15,16c0.01,0,0.01,0,0.02,0h4.66  c0.18,0.01,0.32-0.13,0.33-0.31c0-0.01,0-0.01,0-0.02v-2c0-0.09-0.03-0.18-0.09-0.24H17.08z M19.08,8.1C19.01,8.03,18.92,8,18.83,8  h-6.66C11.99,8,11.84,8.13,11.84,8.31c0,0.01,0,0.01,0,0.02v2c-0.01,0.18,0.13,0.32,0.31,0.33c0.01,0,0.01,0,0.02,0h6.66  c0.18,0.01,0.32-0.13,0.33-0.31c0-0.01,0-0.01,0-0.02v-2c0-0.09-0.03-0.17-0.09-0.23H19.08z M21.08,2.77  c-0.06-0.06-0.15-0.09-0.24-0.09h-8.67c-0.18-0.01-0.32,0.13-0.33,0.31c0,0.01,0,0.01,0,0.02V5c-0.01,0.18,0.13,0.32,0.31,0.33  c0.01,0,0.01,0,0.02,0h8.66c0.18,0.01,0.33-0.12,0.34-0.3c0-0.01,0-0.02,0-0.03V3c0-0.09-0.04-0.17-0.1-0.23L21.08,2.77z" style="fill: rgb(124, 124, 124);" vector-effect="non-scaling-stroke"/></g></svg>