<svg version="1.2" xmlns="http://www.w3.org/2000/svg" xmlns:xlink="http://www.w3.org/1999/xlink" overflow="visible" preserveAspectRatio="none" viewBox="0 0 24 24" width="24" height="24"><g><path xmlns:default="http://www.w3.org/2000/svg" id="pie-chart" d="M11,12.58V4.65C9.59,4.64,8.21,5.01,7,5.72c-1.21,0.7-2.22,1.7-2.92,2.91c-1.43,2.48-1.43,5.52,0,8  c0.7,1.22,1.71,2.23,2.92,2.94c2.17,1.26,4.81,1.43,7.12,0.45c0.97-0.41,1.84-1,2.58-1.75L11,12.58L11,12.58z M18.62,18.33  c1.52-1.5,2.38-3.54,2.38-5.68h-8L18.62,18.33z M19.26,7.33c-0.7-1.21-1.7-2.21-2.91-2.91c-1.21-0.71-2.59-1.08-4-1.07v8h8  c0.01-1.42-0.36-2.82-1.09-4.05L19.26,7.33z" style="fill: rgb(18, 18, 18);" vector-effect="non-scaling-stroke"/></g></svg>