<svg width="24" height="24" viewBox="0 0 24 24" fill="none" xmlns="http://www.w3.org/2000/svg">
<path d="M12 2C17.5275 2 22 6.47293 22 12C22 17.5275 17.5271 22 12 22C6.47254 22 2 17.5271 2 12C2 6.47254 6.47297 2 12 2ZM12 20.4375C16.6638 20.4375 20.4375 16.6635 20.4375 12C20.4375 7.33621 16.6635 3.5625 12 3.5625C7.33621 3.5625 3.5625 7.33652 3.5625 12C3.5625 16.6638 7.33656 20.4375 12 20.4375Z" fill="black"/>
<path d="M12 10.3721C12.4315 10.3721 12.7812 10.7218 12.7812 11.1533V16.1843C12.7812 16.6158 12.4315 16.9655 12 16.9655C11.5685 16.9655 11.2188 16.6157 11.2188 16.1843V11.1533C11.2188 10.7218 11.5685 10.3721 12 10.3721Z" fill="black"/>
<path d="M12 9.41553C11.4175 9.41553 10.9453 8.94333 10.9453 8.36084C10.9453 7.77835 11.4175 7.30615 12 7.30615C12.5825 7.30615 13.0547 7.77835 13.0547 8.36084C13.0547 8.94333 12.5825 9.41553 12 9.41553Z" fill="black"/>
</svg>
