<svg width="24" height="24" viewBox="0 0 24 24" fill="none" xmlns="http://www.w3.org/2000/svg">
<path d="M12 2C6.47715 2 2 6.47715 2 12C2 17.5228 6.47715 22 12 22C17.5228 22 22 17.5228 22 12C21.9941 6.47962 17.5204 2.0059 12 2ZM12 20.5714C7.26612 20.5714 3.42856 16.7339 3.42856 12C3.42856 7.26612 7.26612 3.42856 12 3.42856C16.7339 3.42856 20.5714 7.26612 20.5714 12C20.5663 16.7318 16.7318 20.5663 12 20.5714Z" fill="#27677C"/>
<path d="M17.4869 7.92366C17.2101 7.65631 16.7712 7.65631 16.4945 7.92366L9.85658 14.5615L7.50441 12.2093C7.23036 11.9256 6.77814 11.9178 6.49442 12.1918C6.21066 12.4659 6.20284 12.9181 6.47689 13.2018C6.48262 13.2077 6.48848 13.2136 6.49442 13.2193L9.35158 16.0765C9.63049 16.3554 10.0827 16.3554 10.3616 16.0765L17.5045 8.93361C17.7785 8.64989 17.7706 8.19771 17.4869 7.92366Z" fill="#27677C"/>
</svg>
