<svg width="24" height="24" viewBox="0 0 24 24" fill="none" xmlns="http://www.w3.org/2000/svg">
<path d="M22.6598 2.66992H18.6598V3.99992H5.33984V2.66992H1.33984V6.66992H2.66984V17.3299H1.33984V21.3299H5.33984V19.9999H18.6598V21.3299H22.6598V17.3299H21.3298V6.66992H22.6598V2.66992ZM19.9998 3.99992H21.3298V5.33992H19.9998V3.99992ZM3.99984 3.99992V5.33992H2.66984V3.99992H3.99984ZM2.66984 19.9999V18.6599H3.99984V19.9999H2.66984ZM18.6698 18.6699H5.33984V17.3299H3.99984V6.66992H5.33984V5.33992H18.6598V6.66992H19.9998V17.3299H18.6598V18.6599L18.6698 18.6699ZM19.9998 19.9999V18.6599H21.3298V19.9999H19.9998ZM14.6698 6.66992H5.33984V14.6699H9.33984V17.3399H18.6698V9.33992H14.6698V6.66992ZM6.66984 13.3299V7.99992H13.3298V13.3299H6.66984ZM17.3298 15.9999H10.6698V14.6699H14.6698V10.6699H17.3398V15.9999H17.3298Z" fill="#333333"/>
</svg>
