<svg width="24" height="24" viewBox="0 0 24 24" fill="none" xmlns="http://www.w3.org/2000/svg">
<path d="M6.95984 19.6099C6.43984 20.1299 5.59984 20.1299 5.07984 19.6099C4.55984 19.0999 4.54984 18.2499 5.05984 17.7299C5.30984 17.4699 5.64984 17.3299 6.00984 17.3299C6.73984 17.3199 7.34984 17.9099 7.35984 18.6399C7.35984 18.9999 7.21984 19.3599 6.95984 19.6099ZM10.9598 19.6099C10.4398 20.1299 9.59984 20.1299 9.07984 19.6099C8.55984 19.0899 8.55984 18.2499 9.07984 17.7299C9.59984 17.2099 10.4398 17.2099 10.9598 17.7299C11.2098 17.9799 11.3498 18.3199 11.3498 18.6699C11.3498 19.0299 11.2098 19.3699 10.9498 19.6099H10.9598ZM7.34984 14.6699C7.34984 15.3999 6.74984 15.9999 6.01984 15.9999H6.00984C5.27984 15.9999 4.67984 15.4099 4.67984 14.6699C4.67984 13.9399 5.26984 13.3399 6.00984 13.3399C6.35984 13.3399 6.69984 13.4799 6.94984 13.7299C7.19984 13.9799 7.34984 14.3199 7.33984 14.6699H7.34984ZM14.9598 19.6099C14.4398 20.1299 13.5998 20.1299 13.0798 19.6099C12.5598 19.0899 12.5598 18.2499 13.0798 17.7299C13.5998 17.2099 14.4398 17.2099 14.9598 17.7299C15.2098 17.9799 15.3498 18.3199 15.3498 18.6699C15.3498 19.0299 15.2098 19.3699 14.9498 19.6099H14.9598ZM11.3498 14.6699C11.3498 15.3999 10.7598 15.9999 10.0198 15.9999C9.28984 15.9999 8.68984 15.4099 8.68984 14.6699C8.68984 13.9399 9.27984 13.3399 10.0198 13.3399C10.3698 13.3399 10.7098 13.4799 10.9598 13.7299C11.2098 13.9799 11.3498 14.3199 11.3498 14.6699ZM6.95984 11.6099C6.43984 12.1299 5.59984 12.1299 5.07984 11.6099C4.55984 11.0999 4.54984 10.2499 5.05984 9.72992C5.30984 9.46992 5.64984 9.32992 6.00984 9.32992C6.73984 9.31992 7.34984 9.90992 7.35984 10.6399C7.35984 10.9999 7.21984 11.3599 6.95984 11.6099ZM15.3498 14.6699C15.3498 15.3999 14.7598 15.9999 14.0198 15.9999C13.2898 15.9999 12.6898 15.4099 12.6898 14.6699C12.6898 13.9399 13.2798 13.3399 14.0198 13.3399C14.3698 13.3399 14.7098 13.4799 14.9598 13.7299C15.2098 13.9799 15.3498 14.3199 15.3498 14.6699ZM10.9598 11.6099C10.4398 12.1299 9.59984 12.1299 9.07984 11.6099C8.55984 11.0899 8.55984 10.2499 9.07984 9.72992C9.59984 9.20992 10.4398 9.20992 10.9598 9.72992C11.2098 9.97992 11.3498 10.3199 11.3498 10.6699C11.3498 11.0299 11.2098 11.3699 10.9498 11.6099H10.9598ZM19.3498 18.6599C19.3498 19.3999 18.7498 19.9899 18.0198 19.9899C17.2798 19.9899 16.6798 19.3899 16.6798 18.6599V14.6599C16.6798 13.9199 17.2798 13.3199 18.0198 13.3199C18.7598 13.3199 19.3498 13.9199 19.3498 14.6599V18.6599ZM14.9598 11.6099C14.4398 12.1299 13.5998 12.1299 13.0798 11.6099C12.5598 11.0899 12.5598 10.2499 13.0798 9.72992C13.5998 9.20992 14.4398 9.20992 14.9598 9.72992C15.2098 9.97992 15.3498 10.3199 15.3498 10.6699C15.3498 11.0299 15.2098 11.3699 14.9498 11.6099H14.9598ZM19.1398 7.79992C19.0098 7.92992 18.8398 7.99992 18.6698 7.99992H5.34984C4.97984 7.98992 4.67984 7.69992 4.67984 7.32992V4.66992C4.67984 4.29992 4.97984 4.00992 5.34984 3.99992H18.6698C19.0398 4.00992 19.3298 4.29992 19.3398 4.66992V7.33992C19.3298 7.50992 19.2598 7.67992 19.1398 7.79992ZM18.9398 11.6099C18.4198 12.1299 17.5798 12.1299 17.0598 11.6099C16.5398 11.0899 16.5398 10.2499 17.0598 9.72992C17.5798 9.20992 18.4198 9.20992 18.9398 9.72992C19.1898 9.97992 19.3298 10.3199 19.3298 10.6699C19.3398 11.0199 19.1998 11.3599 18.9398 11.6099ZM20.2698 3.06992C20.0298 2.80992 19.6898 2.66992 19.3298 2.66992H4.67984C4.31984 2.66992 3.97984 2.80992 3.73984 3.06992C3.47984 3.30992 3.33984 3.64992 3.33984 4.00992V19.9999C3.34984 20.7299 3.93984 21.3199 4.66984 21.3299H19.3398C20.0698 21.3199 20.6598 20.7299 20.6698 19.9999V3.99992C20.6698 3.64992 20.5298 3.30992 20.2698 3.06992Z" fill="#333333"/>
</svg>
