<svg width="24" height="24" viewBox="0 0 24 24" fill="none" xmlns="http://www.w3.org/2000/svg">
<path d="M21.0527 2.00217H2.92707C2.54576 1.97491 2.21893 2.20665 2.08275 2.56108C1.91933 2.88824 2.00104 3.31082 2.30064 3.5562L9.27309 10.5493V17.447C9.27309 17.6924 9.36842 17.9241 9.54545 18.0877L13.1815 21.7274C13.3449 21.9046 13.5764 22 13.8215 22C13.9441 22 14.0667 21.9727 14.1756 21.9318C14.5297 21.7955 14.7476 21.4547 14.7203 21.073V10.5493L21.7064 3.5562C21.9924 3.31082 22.0877 2.90187 21.9107 2.56108C21.7745 2.20665 21.434 1.97491 21.0527 2.00217Z" fill="#333333"/>
</svg>
