<svg width="24" height="24" viewBox="0 0 24 24" fill="none" xmlns="http://www.w3.org/2000/svg">
<path d="M15.0803 18.76C15.0203 18.7 14.9303 18.67 14.8403 18.67H12.1703C11.9903 18.66 11.8503 18.8 11.8403 18.98C11.8403 18.99 11.8403 18.99 11.8403 19V21C11.8303 21.18 11.9703 21.32 12.1503 21.33C12.1603 21.33 12.1603 21.33 12.1703 21.33H14.8403C15.0203 21.34 15.1603 21.2 15.1703 21.02C15.1703 21.01 15.1703 21.01 15.1703 21V19C15.1703 18.91 15.1403 18.82 15.0803 18.76ZM10.1803 17.67C10.1903 17.49 10.0503 17.35 9.87033 17.34C9.86033 17.34 9.86033 17.34 9.85033 17.34H7.85033V3C7.86033 2.82 7.72033 2.68 7.54033 2.67C7.53033 2.67 7.53033 2.67 7.52033 2.67H5.52033C5.34033 2.65 5.19033 2.78 5.17033 2.96C5.17033 2.97 5.17033 2.99 5.17033 3V17.33H3.17033C3.03033 17.32 2.90033 17.41 2.86033 17.54C2.81033 17.66 2.83033 17.81 2.93033 17.9L6.26033 21.23C6.33033 21.29 6.41033 21.32 6.50033 21.32C6.59033 21.32 6.67033 21.29 6.74033 21.23L10.0603 17.91C10.1203 17.84 10.1603 17.75 10.1603 17.66L10.1803 17.67ZM17.0803 13.43C17.0203 13.37 16.9303 13.34 16.8403 13.34H12.1703C11.9903 13.33 11.8503 13.47 11.8403 13.65C11.8403 13.66 11.8403 13.66 11.8403 13.67V15.67C11.8303 15.85 11.9703 16 12.1503 16C12.1603 16 12.1603 16 12.1703 16H16.8303C17.0103 16.01 17.1503 15.87 17.1603 15.69C17.1603 15.68 17.1603 15.68 17.1603 15.67V13.67C17.1603 13.58 17.1303 13.49 17.0703 13.43H17.0803ZM19.0803 8.1C19.0103 8.03 18.9203 8 18.8303 8H12.1703C11.9903 8 11.8403 8.13 11.8403 8.31C11.8403 8.32 11.8403 8.32 11.8403 8.33V10.33C11.8303 10.51 11.9703 10.65 12.1503 10.66C12.1603 10.66 12.1603 10.66 12.1703 10.66H18.8303C19.0103 10.67 19.1503 10.53 19.1603 10.35C19.1603 10.34 19.1603 10.34 19.1603 10.33V8.33C19.1603 8.24 19.1303 8.16 19.0703 8.1H19.0803ZM21.0803 2.77C21.0203 2.71 20.9303 2.68 20.8403 2.68H12.1703C11.9903 2.67 11.8503 2.81 11.8403 2.99C11.8403 3 11.8403 3 11.8403 3.01V5C11.8303 5.18 11.9703 5.32 12.1503 5.33C12.1603 5.33 12.1603 5.33 12.1703 5.33H20.8303C21.0103 5.34 21.1603 5.21 21.1703 5.03C21.1703 5.02 21.1703 5.01 21.1703 5V3C21.1703 2.91 21.1303 2.83 21.0703 2.77H21.0803Z" fill="#333333"/>
</svg>
