<svg width="24" height="24" viewBox="0 0 24 24" fill="none" xmlns="http://www.w3.org/2000/svg">
<path d="M20.0004 12C20.0004 10.93 19.7804 9.87999 19.3604 8.89999C18.5604 6.96999 17.0304 5.43999 15.1004 4.63999C13.1604 3.79999 10.9604 3.77999 9.00042 4.57999C8.07042 4.95999 7.22042 5.51999 6.49042 6.20999L5.14042 4.86999C4.96042 4.65999 4.67042 4.59999 4.42042 4.71999C4.16042 4.80999 3.99042 5.06 4.00042 5.34V9.99999C4.01042 10.37 4.30042 10.66 4.67042 10.67H9.33042C9.60042 10.68 9.85042 10.51 9.94042 10.25C10.0704 10.01 10.0104 9.70999 9.80042 9.52999L8.38042 8.1C8.85042 7.64 9.40042 7.25999 10.0004 6.99999C10.6404 6.74999 11.3204 6.61999 12.0004 6.62999C12.7104 6.62999 13.4204 6.76999 14.0704 7.04999C15.3504 7.58999 16.3704 8.60999 16.9104 9.89C17.4704 11.21 17.4704 12.7 16.9104 14.02C16.3704 15.3 15.3504 16.32 14.0704 16.86C13.4204 17.14 12.7104 17.28 12.0004 17.28C10.3504 17.29 8.79042 16.52 7.79042 15.21C7.73042 15.14 7.64042 15.09 7.55042 15.09C7.45042 15.09 7.36042 15.12 7.29042 15.18L5.87042 16.66C5.81042 16.72 5.78042 16.79 5.78042 16.87C5.78042 16.95 5.80042 17.03 5.85042 17.1C6.59042 18.01 7.53042 18.74 8.60042 19.24C9.66042 19.74 10.8204 20 12.0004 20C13.0704 20 14.1204 19.78 15.1004 19.36C17.0304 18.56 18.5604 17.03 19.3604 15.1C19.7804 14.12 20.0004 13.07 20.0004 12Z" fill="#333333"/>
</svg>
