<svg width="18" height="18" viewBox="0 0 18 18" fill="none" xmlns="http://www.w3.org/2000/svg">
<path d="M11.9398 5.3325L9.16483 2.3325C9.12733 2.2875 9.06733 2.2575 9.00733 2.25C8.93983 2.25 8.87233 2.28 8.82733 2.325L6.09733 5.325C6.01483 5.385 5.97733 5.4975 6.00733 5.6025C6.03733 5.7 6.13483 5.76 6.23233 5.7525H7.97983V15.5025C7.97233 15.6375 8.07733 15.75 8.21233 15.75C8.22733 15.75 8.24233 15.75 8.25733 15.75H9.75733C9.89233 15.7575 9.99733 15.6525 10.0048 15.5175C10.0048 15.51 10.0048 15.51 10.0048 15.5025V5.7525H11.7523C11.8498 5.7525 11.9398 5.6925 11.9773 5.6025C12.0223 5.5125 12.0073 5.4075 11.9398 5.3325Z" fill="#333333"/>
</svg>
