<svg width="24" height="24" viewBox="0 0 24 24" fill="none" xmlns="http://www.w3.org/2000/svg">
<path d="M19.5599 4.43992H18.72V2.75987C18.72 2.29629 18.3436 1.91992 17.8799 1.91992H17.0399C16.5762 1.91992 16.2 2.29629 16.2 2.75987V4.43992H7.79987V2.75987C7.79987 2.29629 7.42365 1.91992 6.95992 1.91992H6.11997C5.65624 1.91992 5.27987 2.29629 5.27987 2.75987V4.43992H4.43992C3.05057 4.43992 1.91992 5.57057 1.91992 6.95992V19.5599C1.91992 20.9493 3.05057 22.0799 4.43992 22.0799H19.5599C20.9493 22.0799 22.0799 20.9493 22.0799 19.5599V6.95992C22.0799 5.57057 20.9493 4.43992 19.5599 4.43992ZM20.3999 19.5599C20.3999 20.0227 20.0227 20.3999 19.5599 20.3999H4.43992C3.97711 20.3999 3.59997 20.0227 3.59997 19.5599V10.3536H20.3999V19.5599Z" fill="#333333"/>
</svg>
