<svg width="24" height="24" viewBox="0 0 24 24" fill="none" xmlns="http://www.w3.org/2000/svg">
<path d="M11.8333 21.0938C12.9104 21.0938 13.7917 20.2125 13.7917 19.1354H9.875C9.875 20.2125 10.7562 21.0938 11.8333 21.0938ZM17.7083 15.2188V10.3229C17.7083 7.31687 16.1123 4.80042 13.3021 4.13458V3.46875C13.3021 2.65604 12.646 2 11.8333 2C11.0206 2 10.3646 2.65604 10.3646 3.46875V4.13458C7.56417 4.80042 5.95833 7.30708 5.95833 10.3229V15.2188L4 17.1771V18.1562H19.6667V17.1771L17.7083 15.2188ZM15.75 16.1979H7.91667V10.3229C7.91667 7.89458 9.39521 5.91667 11.8333 5.91667C14.2715 5.91667 15.75 7.89458 15.75 10.3229V16.1979Z" fill="#333333"/>
</svg>
