<svg width="24" height="24" viewBox="0 0 24 24" fill="none" xmlns="http://www.w3.org/2000/svg">
<g clip-path="url(#clip0)">
<path d="M7.22247 8.01196L9.96677 10.7563L10.7952 9.9277L8.05087 7.18341V4.98218L3.91467 2L2.03906 3.87561L5.02124 8.01196H7.22247Z" fill="black"/>
<path d="M16.037 3.02858C14.2487 4.81798 15.3252 6.92751 15.3349 7.04469L7.0842 15.2974C6.96701 15.2884 4.86237 14.2041 3.06809 15.9984C2.01645 17.0506 1.74072 18.6585 2.38083 20.0002L4.72565 17.656L6.38275 19.3131L4.03855 21.6573C5.35065 22.2847 6.96305 22.0477 8.03971 20.97C9.82895 19.1818 8.75153 17.0717 8.74176 16.9545L16.9925 8.70226C17.1097 8.71385 19.2217 9.78868 21.0086 8.0002C22.0609 6.94856 22.3366 5.34074 21.6959 3.99889L19.3517 6.34309L17.6946 4.68614L20.0388 2.34132C18.7349 1.7209 17.1231 1.94414 16.037 3.02858Z" fill="black"/>
<path d="M12.4492 14.8943L14.9333 12.4102L15.7654 13.2422L13.2811 15.7263L12.4492 14.8943Z" fill="black"/>
<path d="M19.5534 21.9995L14.1123 16.5584L16.5966 14.0742L22.0376 19.5152L19.5534 21.9995Z" fill="black"/>
</g>
<defs>
<clipPath id="clip0">
<rect width="20" height="20" fill="white" transform="translate(2 2)"/>
</clipPath>
</defs>
</svg>
