<svg width="24" height="24" viewBox="0 0 24 24" fill="none" xmlns="http://www.w3.org/2000/svg">
<path d="M19.0711 19.0714C17.1957 20.9468 14.6521 22.0004 11.9999 22.0004C9.34769 22.0004 6.80412 20.9468 4.92871 19.0714L7.96933 16.0308C9.03829 17.0997 10.4881 17.7003 11.9999 17.7003C13.5117 17.7003 14.9615 17.0997 16.0305 16.0308L19.0711 19.0714Z" fill="#85CBD1"/>
<path d="M4.92898 19.0716C3.05359 17.1962 2 14.6526 2 12.0004C2 9.34818 3.05359 6.8046 4.92898 4.9292L7.96959 7.96982C6.90061 9.03878 6.30007 10.4886 6.30007 12.0004C6.30007 13.5121 6.90061 14.962 7.96959 16.031L4.92898 19.0716Z" fill="#004D40"/>
<path d="M4.92871 4.92898C6.80412 3.05358 9.34769 2 11.9999 2C14.6521 2 17.1957 3.05359 19.0711 4.92898L16.0305 7.96959C14.9615 6.90061 13.5117 6.30007 11.9999 6.30007C10.4881 6.30007 9.03829 6.90061 7.96933 7.96959L4.92871 4.92898Z" fill="#AD1457"/>
<path d="M19.0699 4.9292C20.9453 6.8046 21.9989 9.34818 21.9989 12.0004C21.9989 14.6526 20.9453 17.1962 19.0699 19.0716L16.0293 16.031C17.0983 14.962 17.6988 13.5121 17.6988 12.0004C17.6988 10.4886 17.0983 9.03878 16.0293 7.96982L19.0699 4.9292Z" fill="#555190"/>
</svg>
